<svg xmlns="http://www.w3.org/2000/svg" xmlns:xlink="http://www.w3.org/1999/xlink" width="705" height="474" viewBox="0 0 705 474">
  <defs>
    <clipPath id="clip-path">
      <rect id="Retângulo_2" data-name="Retângulo 2" width="705" height="474" transform="translate(1071 187)" fill="none" stroke="#707070" stroke-width="1"/>
    </clipPath>
    <linearGradient id="linear-gradient" x1="0.5" y1="-0.014" x2="0.5" y2="1.035" gradientUnits="objectBoundingBox">
      <stop offset="0" stop-color="#fff"/>
      <stop offset="0.093" stop-color="#fff" stop-opacity="0.863"/>
      <stop offset="0.284" stop-color="#fff" stop-opacity="0.604"/>
      <stop offset="0.466" stop-color="#fff" stop-opacity="0.388"/>
      <stop offset="0.633" stop-color="#fff" stop-opacity="0.22"/>
      <stop offset="0.784" stop-color="#fff" stop-opacity="0.102"/>
      <stop offset="0.911" stop-color="#fff" stop-opacity="0.027"/>
      <stop offset="1" stop-color="#fff" stop-opacity="0"/>
    </linearGradient>
  </defs>
  <g id="Grupo_de_máscara_3" data-name="Grupo de máscara 3" transform="translate(-1071 -187)" clip-path="url(#clip-path)">
    <g id="_111-coding" data-name="111-coding" transform="translate(1057 131.926)" style="isolation: isolate">
      <path id="Caminho_117" data-name="Caminho 117" d="M0,0H732.574V732.574H0Z" fill="none"/>
      <path id="Caminho_6" data-name="Caminho 6" d="M200.111,445.594a1.661,1.661,0,0,0,1.774-1.71,1.517,1.517,0,0,0-1.678-1.612,1.612,1.612,0,0,0-1.774,1.567v.047a1.668,1.668,0,0,0,1.678,1.708Z" transform="translate(108.248 241.262)" fill="#e5e5e5"/>
      <path id="Caminho_7" data-name="Caminho 7" d="M240.979,449.646c-.1-.57.863-.665.767-1.14-.1-.664-.671-.664-1.054-.618-2.157.238-2.589.952-2.78,2.327a2.947,2.947,0,0,0,.958,2.137,15.843,15.843,0,0,1-.383,3.228.678.678,0,0,0-.384.427,41.156,41.156,0,0,1-1.294,4.606,2.373,2.373,0,0,0-.48.9v.237c-.479.9-1.007,1.566-1.629,1.566-.288,0-.384-.76-.384-1.758,0-1.758.911-6.647.911-7.692,0-1.377.24-2.564.24-3.7,0-.475-.336-.617-.767-.617-.336,0-.527.237-.863.237-1.392,0-1.582.76-1.582,1.9,0,.475,0,7.217-.1,8.072-.1,1.425-.911,3.182-2.445,3.182-1.392,0-2.061-1.9-2.061-3.941a23.007,23.007,0,0,1,.575-4.982c.147-.475.767-2.659.767-2.943,0-.522-.048-.664-.623-.664-2.205.047-2.637.237-2.971,1.424a26.605,26.605,0,0,0-.719,5.888v.617c-.527,1.612-1.1,3.419-2.588,3.516-1.007.048-1.343-2.469-1.343-5.08,0-5.175,1.486-10.208,1.678-15.384.048-.475-.288-.806-.863-.806a7.1,7.1,0,0,1-1.342.048c-.575,0-.815.237-.863.806-.479,5.176-1.534,11.49-1.534,16.523v.095c-.527,1.662-1.1,3.8-2.684,3.894-1.007.048-1.342-2.469-1.342-5.08,0-5.176,1.486-10.208,1.678-15.384.048-.475-.288-.806-.863-.806-.767,0-1.007-.048-1.392-.048-.575,0-.815.237-.862.806-.48,5.176-1.534,11.49-1.534,16.523v.094c-.527,1.662-1.1,3.8-2.684,3.894-1.007.048-1.343-2.469-1.343-5.08,0-5.176,1.486-10.208,1.678-15.384.048-.475-.288-.806-.863-.806-.815,0-1.055-.048-1.438-.048-.575,0-.815.237-.863.806-.479,5.176-1.534,11.49-1.534,16.523v.76c-.479,1.661-1.2,3.466-2.109,3.466-.432-.048-.767-.664-.767-2.089,0-2.611.24-6.22.479-8.973.048-.333-.1-.665-.479-.665-.336-.047-1.392-.142-1.774-.142-.575,0-.815.333-.815.952v.952c.048,3.182-.288,5.7-.288,8.689,0,2.137,1.15,3.609,2.588,3.609,1.534,0,2.733-1.282,3.548-2.8.431,1.612,1.245,3.039,2.876,3.039,1.533,0,3.02-1.662,4.029-3.516.383,1.8,1.2,3.516,2.972,3.516,1.534,0,3.02-1.662,4.029-3.516.384,1.8,1.2,3.516,2.972,3.516,1.486,0,2.972-1.612,3.979-3.37.527,2.137,1.726,3.751,3.979,3.751,1.87,0,2.4-.76,3.6-2.469.383.952.527,2.754,1.629,2.754,1.534,0,2.828-1.758,3.691-3.751a6.074,6.074,0,0,0,4.793,2.659,4.358,4.358,0,0,0,4.6-4.653C247.067,455.865,241.41,451.782,240.979,449.646Zm.671,12.772c-.766,0-1.965-.475-2.013-1.472-.048-.57,1.294-.855,1.774-1.14.384-.237.48-.427.48-.569-.048-.333-.527-.57-1.055-.57a3.3,3.3,0,0,0-1.774.617c.147-.664,1.15-4.083,1.392-5.745a10.928,10.928,0,0,1,3.787,6.837c.142,1.852-1.967,2.039-2.59,2.039Z" transform="translate(108.028 240.344)" fill="#e5e5e5"/>
      <path id="Caminho_8" data-name="Caminho 8" d="M254.636,445.594a1.661,1.661,0,0,0,1.774-1.71,1.517,1.517,0,0,0-1.678-1.612,1.612,1.612,0,0,0-1.774,1.567v.047a1.668,1.668,0,0,0,1.678,1.708Z" transform="translate(137.992 241.262)" fill="#e5e5e5"/>
      <path id="Caminho_9" data-name="Caminho 9" d="M295.217,464.4c-.863-.57-1.486-1.472-1.342-5.176.1-2.374.575-5.65.575-7.976,0-1.045-.479-2.231-1.821-2.231-1.678,0-4.123,3.418-4.89,4.938.1-.9.384-3.561.431-4.463s.048-.952-1.534-.952c-1.054,0-1.149.19-1.149.569,0,2.185-.193,4.7-.384,7.217-.576,1.234-1.343,2.469-2.445,2.469a2.2,2.2,0,0,1-.958-.237,7.281,7.281,0,0,0,.815-3.181,2.283,2.283,0,0,0-2.3-2.374,2.717,2.717,0,0,0-2.829,2.944c0,1.329,1.392,2.849,2.445,3.561a3.641,3.641,0,0,1-3.308,1.994c-2.061,0-2.784-3.751-2.784-5.128,0-2.659.959-5.65,4.122-5.65,2.157,0,2.157,1.424,3.068,1.424.1,0,.384-.142.384-.284,0-1.567-2.491-2.849-3.787-2.849a7.45,7.45,0,0,0-7.477,7.787,8.278,8.278,0,0,0,.431,2.612c-.431,1.091-.959,1.946-1.63,1.946-.431,0-.767-.618-.767-2.042,0-2.612.24-6.22.479-8.973.048-.333-.1-.665-.479-.665-.336-.048-1.392-.142-1.774-.142-.575,0-.815.332-.815.952v.952c0,1.662-.1,3.086-.147,4.51a1.054,1.054,0,0,0-.147.237c-.527,1.425-1.2,5.365-2.784,5.365-.48,0-1.486-.664-1.486-2.516a90.922,90.922,0,0,1,1.151-10.018c1.533-.333,2.876-.237,4.7-.76.815-.237.336-1.187-.575-1.092a25.555,25.555,0,0,1-3.979,0c.048-1.567.431-2.564.431-4.176v-.146c0-.427-.192-.76-.623-.76-.863,0-2.205.285-2.205,1.472,0,1.235-.239,2.327-.192,3.561-.862.048-1.629-.19-2.491-.19-.623,0-.767,1.14-.767,1.567,0,.475.048.806.336.806a22.17,22.17,0,0,0,2.733-.237c-.24,3.133-.623,4.89-.863,7.074,0,.142-.048.332-.048.522-.527,1.661-1.533,4.225-2.348,4.225a1.072,1.072,0,0,1-.8-.9,31.19,31.19,0,0,1,.864-7.545,8.1,8.1,0,0,0,.479-1.851c0-.618-1.007-.952-1.533-.952-.863,0-.815.475-1.151,1.234-.623-.475-.767-1.329-2.445-1.329-3.068,0-4.938,4.938-4.938,8.024,0,.522-.048.806-.048,1.092,0,1.758-1.007,3.941-2.061,3.941-.911,0-1.2-2.469-1.2-3.516a23.15,23.15,0,0,1,1.245-6.173,4.5,4.5,0,0,0,.671-1.661c0-.664-.767-1.758-1.534-1.758-.863,0-1.392.475-2.3.475-1.438,0-2.4-.9-3.212-.9a.752.752,0,0,0-.815.806c0,1.282,1.392,1.045,1.055,2.659-.336,1.519-1.342,5.65-1.917,7.217a.352.352,0,0,0-.048.237,1.386,1.386,0,0,0,.1.475c-.336.569-.719.952-1.2.952s-1.486-.665-1.486-2.516a90.938,90.938,0,0,1,1.151-10.019c1.534-.332,2.875-.237,4.7-.76.815-.237.336-1.187-.576-1.092a25.661,25.661,0,0,1-3.979,0c.048-1.567.431-2.564.431-4.176,0-.427-.191-.76-.623-.76-.863,0-2.205.285-2.205,1.472,0,1.235-.24,2.327-.192,3.561-.862.048-1.629-.19-2.491-.19-.623,0-.767,1.14-.767,1.567,0,.475.048.806.336.806a22.17,22.17,0,0,0,2.733-.237c-.24,3.133-.623,4.89-.863,7.074a38.926,38.926,0,0,0-.335,4.083,3.737,3.737,0,0,0,3.259,3.7c2.637,0,4.793-5.318,4.793-7.5v-.285c.288-1.282.48-2.564.719-3.656.048-.142.192-.57.575-.57.863,0,.959.618.959,1.282,0,1.758-.623,4.891-.623,6.74,0,1.8.479,4.036,2.589,4.036a4.657,4.657,0,0,0,4.029-2.659c.575,1.377,1.534,2.469,2.876,2.469a4.493,4.493,0,0,0,3.164-1.851c.192.475.479,1.758,1.87,1.758,1.294,0,2.3-1.092,3.068-2.469a3.6,3.6,0,0,0,3.115,2.754c1.486,0,2.876-1.758,3.736-3.656.1,1.994,1.2,3.324,2.589,3.324,1.438,0,2.637-1.14,3.451-2.564a4.866,4.866,0,0,0,4.218,2.469c2.637,0,4.218-1.709,5.608-3.751a7.268,7.268,0,0,0,1.343.237,3.58,3.58,0,0,0,2.541-1.472c-.1,1.519-.192,2.991-.192,4.322,0,.475.1.664.431.76a4.208,4.208,0,0,0,1.342.048c.479,0,.575.048.671-.57.048-.427.336-5.508.336-5.888,0-1.045,2.541-5.46,3.787-5.46.24,0,.431.427.431.712,0,2.279-.719,5.982-.719,8.357,0,2.516,1.245,3.37,1.774,3.656a4.72,4.72,0,0,0,2.061.522C295.217,464.874,295.553,464.589,295.217,464.4Zm-42.086-4.843c-.048.664-1.245,2.374-2.157,2.374-1.007,0-1.438-2.849-1.392-4.748.048-2.232,1.15-6.22,2.205-6.22,1.392,0,1.582,3.324,1.582,4.368,0,1.187-.141,3.041-.237,4.225Zm27.515-1.567a3.067,3.067,0,0,1-1.007-2.279c0-.427.146-1.377.767-1.377.575,0,.766,1.045.766,1.472A8.113,8.113,0,0,1,280.646,457.989Z" transform="translate(125.117 241.164)" fill="#e5e5e5"/>
      <path id="Caminho_10" data-name="Caminho 10" d="M282.983,457.043c-.24-3.751-5.944-7.834-6.327-9.971-.1-.569.863-.664.767-1.139-.1-.664-.671-.664-1.055-.618-2.157.237-2.588.952-2.779,2.327a2.95,2.95,0,0,0,.958,2.137,22.22,22.22,0,0,1-1.917,8.072,3.7,3.7,0,0,0-.623,1.092c-.1.569.335.854.719.475.335-.285.287-.475.623-.713a5.881,5.881,0,0,0,4.986,2.992A4.4,4.4,0,0,0,282.983,457.043Zm-5.655,2.8c-.767,0-1.966-.475-2.014-1.472-.048-.57,1.294-.855,1.774-1.14.383-.237.48-.427.48-.569-.048-.333-.528-.57-1.055-.57a3.3,3.3,0,0,0-1.774.617c.147-.664,1.151-4.083,1.392-5.745a10.92,10.92,0,0,1,3.786,6.837c.143,1.852-1.966,2.039-2.589,2.039Z" transform="translate(148.376 242.917)" fill="#e5e5e5"/>
      <path id="Caminho_11" data-name="Caminho 11" d="M33.073,456.139c0,1.831-.879,2.711-1.9,2.711a1.412,1.412,0,0,1-1.538-1.026,1.612,1.612,0,0,1-1.319.586,2.057,2.057,0,0,1,0-4.1,1.593,1.593,0,0,1,1.172.513v-.366h1.172v2.857c0,.586.22,1.026.733,1.026.659,0,1.245-.659,1.245-2.2a3.834,3.834,0,0,0-3.956-3.883,4.067,4.067,0,0,0-4.1,4.176,4.12,4.12,0,0,0,4.322,4.176,8.742,8.742,0,0,0,2.124-.293v.439a5.948,5.948,0,0,1-2.124.293,4.543,4.543,0,1,1-.22-9.084,4.1,4.1,0,0,1,4.4,4.176Zm-3.59.22a.987.987,0,0,0-.952-1.026.907.907,0,0,0-.952,1.026.924.924,0,0,0,.952.952C29.117,457.384,29.483,456.944,29.483,456.358Z" transform="translate(13.226 246.547)" fill="#e5e5e5"/>
      <path id="Caminho_12" data-name="Caminho 12" d="M34.059,452.72v1.465a1.644,1.644,0,0,0-1.9,1.758v3.15H30.763v-6.3h1.392v1.026A1.928,1.928,0,0,1,34.059,452.72Z" transform="translate(16.781 246.962)" fill="#e5e5e5"/>
      <path id="Caminho_13" data-name="Caminho 13" d="M36.6,458.018a1.935,1.935,0,0,0,1.612-.806l1.1.659a3.184,3.184,0,0,1-2.784,1.392,3.234,3.234,0,0,1-3.443-3.3,3.194,3.194,0,0,1,3.3-3.3,3.16,3.16,0,0,1,3.15,3.3,1.611,1.611,0,0,1-.073.586H34.478a2.075,2.075,0,0,0,2.124,1.465Zm1.685-2.564a1.74,1.74,0,0,0-1.831-1.538,1.836,1.836,0,0,0-1.9,1.538Z" transform="translate(18.048 246.938)" fill="#e5e5e5"/>
      <path id="Caminho_14" data-name="Caminho 14" d="M44.518,452.791v6.3H43.127v-.879a2.7,2.7,0,0,1-2.2,1.1,3.255,3.255,0,0,1-3.15-3.3,3.163,3.163,0,0,1,3.15-3.3,2.647,2.647,0,0,1,2.2,1.026v-.879h1.392Zm-1.319,3.15a1.978,1.978,0,1,0-1.978,1.978,1.884,1.884,0,0,0,1.978-1.978Z" transform="translate(20.607 246.964)" fill="#e5e5e5"/>
      <path id="Caminho_15" data-name="Caminho 15" d="M43.181,450.916h1.392v9.157H43.181Z" transform="translate(23.556 245.982)" fill="#e5e5e5"/>
      <path id="Caminho_16" data-name="Caminho 16" d="M51.024,452.765l-2.417,6.3H47.068l-2.417-6.3h1.465l1.758,4.762,1.758-4.762Z" transform="translate(24.358 246.99)" fill="#e5e5e5"/>
      <path id="Caminho_17" data-name="Caminho 17" d="M49.8,453.7H51.2v6.52c0,1.758-.879,2.564-2.564,2.417v-1.319c.806.073,1.245-.22,1.245-1.1V453.7Zm-.147-1.758a.879.879,0,1,1,.879.879A.879.879,0,0,1,49.658,451.937Z" transform="translate(26.53 246.059)" fill="#e5e5e5"/>
      <path id="Caminho_18" data-name="Caminho 18" d="M57.234,452.765l-2.417,6.447c-.586,1.612-1.612,2.418-3.077,2.344V460.31a1.521,1.521,0,0,0,1.685-1.245l.073-.147-2.637-6.154h1.465l1.9,4.542,1.612-4.542Z" transform="translate(27.745 246.99)" fill="#e5e5e5"/>
      <path id="Caminho_19" data-name="Caminho 19" d="M29.625,445.926a2.661,2.661,0,0,1-2.637,2.784h-2.2v-5.568h2.2a2.662,2.662,0,0,1,2.637,2.784Zm-.733,0a1.994,1.994,0,0,0-1.9-2.125H25.523v4.176h1.465a1.888,1.888,0,0,0,1.9-2.051Z" transform="translate(13.523 241.741)" fill="#e5e5e5"/>
      <path id="Caminho_20" data-name="Caminho 20" d="M32.947,448.025v.733h-3.37V443.19h3.3v.733H30.31v1.685h2.344v.659H30.31v1.758Z" transform="translate(16.135 241.767)" fill="#e5e5e5"/>
      <path id="Caminho_21" data-name="Caminho 21" d="M33.18,447.519l.659-.366a1.456,1.456,0,0,0,1.465,1.026c.806,0,1.172-.366,1.172-.879,0-.586-.513-.733-1.319-1.026-.879-.293-1.758-.586-1.758-1.612a1.618,1.618,0,0,1,1.758-1.612,1.951,1.951,0,0,1,1.9,1.245l-.586.366a1.277,1.277,0,0,0-1.245-.879c-.586,0-1.026.293-1.026.806s.366.733,1.172.952c.952.293,1.9.586,1.9,1.685a1.709,1.709,0,0,1-1.9,1.612,2.086,2.086,0,0,1-2.2-1.319Z" transform="translate(18.1 241.687)" fill="#e5e5e5"/>
      <path id="Caminho_22" data-name="Caminho 22" d="M38.179,443.143v5.568h-.733v-5.568Z" transform="translate(20.427 241.741)" fill="#e5e5e5"/>
      <path id="Caminho_23" data-name="Caminho 23" d="M45.268,446.344a2.542,2.542,0,0,1-2.711,2.564,2.848,2.848,0,0,1-2.93-2.93,2.911,2.911,0,0,1,5.348-1.612l-.659.366a2.033,2.033,0,0,0-1.758-1.026,2.2,2.2,0,1,0,0,4.4,1.831,1.831,0,0,0,1.978-1.465H42.484v-.659h2.784Z" transform="translate(21.616 241.689)" fill="#e5e5e5"/>
      <path id="Caminho_24" data-name="Caminho 24" d="M49.158,443.143v5.568h-.586l-2.857-4.176v4.176h-.733v-5.568h.586l2.857,4.176v-4.176Z" transform="translate(24.539 241.741)" fill="#e5e5e5"/>
      <path id="Caminho_25" data-name="Caminho 25" d="M52.9,448.025v.733h-3.37V443.19h3.3v.733H50.266v1.685H52.61v.659H50.266v1.758Z" transform="translate(27.021 241.767)" fill="#e5e5e5"/>
      <path id="Caminho_26" data-name="Caminho 26" d="M58.207,445.926a2.661,2.661,0,0,1-2.637,2.784h-2.2v-5.568h2.2a2.711,2.711,0,0,1,2.637,2.784Zm-.733,0a1.994,1.994,0,0,0-1.9-2.125H54.1v4.176H55.57a1.888,1.888,0,0,0,1.9-2.051Z" transform="translate(29.115 241.741)" fill="#e5e5e5"/>
      <path id="Caminho_27" data-name="Caminho 27" d="M64.559,447.146a1.626,1.626,0,0,1-1.612,1.612H60.53V443.19h2.2a1.5,1.5,0,0,1,1.538,1.538,1.423,1.423,0,0,1-.586,1.172A1.215,1.215,0,0,1,64.559,447.146Zm-3.3-3.37v1.685h1.465a.831.831,0,0,0,.806-.879.879.879,0,0,0-.806-.879H61.262Zm2.564,3.3a.846.846,0,0,0-.879-.879H61.262v1.831h1.685a.908.908,0,0,0,.879-.952Z" transform="translate(33.02 241.767)" fill="#e5e5e5"/>
      <path id="Caminho_28" data-name="Caminho 28" d="M67.032,446.439v2.271H66.3v-2.271l-1.978-3.3h.806l1.538,2.637,1.538-2.637h.806Z" transform="translate(35.089 241.741)" fill="#e5e5e5"/>
      <path id="Caminho_29" data-name="Caminho 29" d="M101.5,443.177v5.641h-.6l-2.9-4.215v4.215h-.75v-5.641h.605l2.9,4.207v-4.207Z" transform="translate(53.046 241.76)" fill="#e5e5e5"/>
      <path id="Caminho_30" data-name="Caminho 30" d="M105.187,448.109v.709h-3.37v-5.641h3.329v.708h-2.578v1.734h2.377v.7h-2.377v1.789Z" transform="translate(55.543 241.76)" fill="#e5e5e5"/>
      <path id="Caminho_31" data-name="Caminho 31" d="M105.364,443.177h.79l1.289,4.642,1.37-4.642h.757l1.37,4.642,1.29-4.642h.79l-1.62,5.641h-.87l-1.338-4.505-1.338,4.505h-.87Z" transform="translate(57.478 241.76)" fill="#e5e5e5"/>
      <path id="Caminho_32" data-name="Caminho 32" d="M116.037,443.177v5.641H115.3v-4.835l-1.2.355-.185-.645,1.483-.513Z" transform="translate(62.139 241.76)" fill="#e5e5e5"/>
      <path id="Caminho_33" data-name="Caminho 33" d="M118.936,443.177v5.641h-.742v-4.835l-1.2.355-.185-.645,1.483-.513Z" transform="translate(63.721 241.76)" fill="#e5e5e5"/>
      <path id="Caminho_34" data-name="Caminho 34" d="M121.835,443.177v5.641h-.742v-4.835l-1.2.355-.185-.645,1.483-.513Z" transform="translate(65.302 241.76)" fill="#e5e5e5"/>
      <path id="Caminho_35" data-name="Caminho 35" d="M97.206,455.483a4.615,4.615,0,0,1,4.736-4.736,4.542,4.542,0,0,1,3.917,2.147l-1.549.9a2.629,2.629,0,0,0-2.368-1.3,2.987,2.987,0,1,0,0,5.973,2.631,2.631,0,0,0,2.368-1.288l1.549.9a4.505,4.505,0,0,1-3.917,2.147,4.625,4.625,0,0,1-4.736-4.737Z" transform="translate(53.026 245.888)" fill="#e5e5e5"/>
      <path id="Caminho_36" data-name="Caminho 36" d="M103.273,455.871a3.443,3.443,0,1,1,3.435,3.435,3.4,3.4,0,0,1-3.435-3.435Zm5.2,0a1.763,1.763,0,1,0-1.769,1.8,1.73,1.73,0,0,0,1.772-1.8Z" transform="translate(56.337 246.802)" fill="#e5e5e5"/>
      <path id="Caminho_37" data-name="Caminho 37" d="M115.235,450.865v9.108h-1.678V459.2a2.525,2.525,0,0,1-2.108.952,3.443,3.443,0,0,1,0-6.87,2.529,2.529,0,0,1,2.108.952v-3.37Zm-1.678,5.855a1.8,1.8,0,1,0-1.8,1.831,1.746,1.746,0,0,0,1.8-1.831Z" transform="translate(59.048 245.953)" fill="#e5e5e5"/>
      <path id="Caminho_38" data-name="Caminho 38" d="M113.632,451.747a1.035,1.035,0,1,1,1.026,1.026,1.035,1.035,0,0,1-1.026-1.026Zm.2,1.809h1.678v6.506H113.83Z" transform="translate(61.988 245.865)" fill="#e5e5e5"/>
      <path id="Caminho_39" data-name="Caminho 39" d="M121.914,455.123v3.995h-1.679v-3.787a1.211,1.211,0,0,0-1.288-1.34c-.82,0-1.431.481-1.431,1.612v3.516h-1.678v-6.506h1.678v.733a2.211,2.211,0,0,1,1.938-.911A2.428,2.428,0,0,1,121.914,455.123Z" transform="translate(63.191 246.808)" fill="#e5e5e5"/>
      <path id="Caminho_40" data-name="Caminho 40" d="M127.433,452.612v6.2c0,2.134-1.679,3.1-3.4,3.1a3.3,3.3,0,0,1-3.084-1.587l1.431-.82a1.691,1.691,0,0,0,1.7.911,1.515,1.515,0,0,0,1.7-1.6v-.7a2.487,2.487,0,0,1-2.082.99,3.332,3.332,0,0,1,0-6.662,2.487,2.487,0,0,1,2.082.989v-.806Zm-1.639,3.15a1.823,1.823,0,1,0-1.822,1.782,1.737,1.737,0,0,0,1.822-1.783Z" transform="translate(65.722 246.808)" fill="#e5e5e5"/>
      <path id="Caminho_41" data-name="Caminho 41" d="M403.719,445.811a2.672,2.672,0,0,1-2.65,2.793h-2.178v-5.587h2.178a2.673,2.673,0,0,1,2.65,2.793Zm-.71,0a1.955,1.955,0,0,0-1.94-2.091h-1.437V447.9h1.437a1.955,1.955,0,0,0,1.94-2.088Z" transform="translate(217.601 241.673)" fill="#e5e5e5"/>
      <path id="Caminho_42" data-name="Caminho 42" d="M403.494,445.845a2.869,2.869,0,1,1,.837,2.054A2.893,2.893,0,0,1,403.494,445.845Zm5.045,0a2.156,2.156,0,1,0-2.157,2.171,2.132,2.132,0,0,0,2.157-2.171Z" transform="translate(220.112 241.639)" fill="#e5e5e5"/>
      <path id="Caminho_43" data-name="Caminho 43" d="M408.485,443.018h.783l1.276,4.6,1.358-4.6h.75l1.356,4.6,1.278-4.6h.782l-1.6,5.587H413.6l-1.325-4.461-1.325,4.461h-.862Z" transform="translate(222.835 241.673)" fill="#e5e5e5"/>
      <path id="Caminho_44" data-name="Caminho 44" d="M419.209,443.018V448.6h-.6l-2.873-4.176V448.6H415v-5.587h.6l2.873,4.166v-4.166Z" transform="translate(226.386 241.673)" fill="#e5e5e5"/>
      <path id="Caminho_45" data-name="Caminho 45" d="M422.735,447.9v.7h-3.15v-5.587h.743V447.9Z" transform="translate(228.89 241.672)" fill="#e5e5e5"/>
      <path id="Caminho_46" data-name="Caminho 46" d="M422.75,445.845a2.869,2.869,0,1,1,.837,2.054A2.893,2.893,0,0,1,422.75,445.845Zm5.045,0a2.156,2.156,0,1,0-2.157,2.171,2.132,2.132,0,0,0,2.157-2.171Z" transform="translate(230.616 241.639)" fill="#e5e5e5"/>
      <path id="Caminho_47" data-name="Caminho 47" d="M431.443,447.351h-2.514l-.455,1.253h-.79l2.083-5.587h.837l2.083,5.587h-.79Zm-.255-.694-1.006-2.754-1,2.754Z" transform="translate(233.308 241.673)" fill="#e5e5e5"/>
      <path id="Caminho_48" data-name="Caminho 48" d="M437.266,445.811a2.672,2.672,0,0,1-2.65,2.793h-2.179v-5.587h2.179a2.672,2.672,0,0,1,2.65,2.793Zm-.711,0a1.956,1.956,0,0,0-1.939-2.091H433.18V447.9h1.437a1.955,1.955,0,0,0,1.939-2.088Z" transform="translate(235.901 241.673)" fill="#e5e5e5"/>
      <path id="Caminho_49" data-name="Caminho 49" d="M440.351,443.722v1.812h2.371v.7h-2.371v2.37h-.743V443.02h3.217v.7Z" transform="translate(239.813 241.674)" fill="#e5e5e5"/>
      <path id="Caminho_50" data-name="Caminho 50" d="M445.419,446.466H444.1V448.6h-.741v-5.587h2.234a1.724,1.724,0,0,1,.586,3.352L447.5,448.6h-.821Zm-1.319-.67h1.492a1.042,1.042,0,0,0,0-2.083H444.1Z" transform="translate(241.859 241.673)" fill="#e5e5e5"/>
      <path id="Caminho_51" data-name="Caminho 51" d="M447.394,445.845a2.87,2.87,0,1,1,.837,2.054,2.894,2.894,0,0,1-.837-2.054Zm5.045,0a2.156,2.156,0,1,0-2.157,2.171,2.132,2.132,0,0,0,2.157-2.171Z" transform="translate(244.06 241.639)" fill="#e5e5e5"/>
      <path id="Caminho_52" data-name="Caminho 52" d="M458.032,448.606H457.3v-4.368l-1.831,3.041h-.1l-1.827-3.033V448.6H452.8v-5.587h.839l1.779,2.953,1.771-2.953h.839Z" transform="translate(247.011 241.672)" fill="#e5e5e5"/>
      <path id="Caminho_53" data-name="Caminho 53" d="M398.785,451.872a.895.895,0,1,1,.895.9A.895.895,0,0,1,398.785,451.872Zm.195,1.867h1.4v6.483h-1.4Z" transform="translate(217.543 246.015)" fill="#e5e5e5"/>
      <path id="Caminho_54" data-name="Caminho 54" d="M400.866,450.835h1.4V460.3h-1.4Z" transform="translate(218.678 245.937)" fill="#e5e5e5"/>
      <path id="Caminho_55" data-name="Caminho 55" d="M402.821,450.835h1.4V460.3h-1.4Z" transform="translate(219.745 245.937)" fill="#e5e5e5"/>
      <path id="Caminho_56" data-name="Caminho 56" d="M404.777,450.835h1.4V460.3h-1.4Z" transform="translate(220.812 245.937)" fill="#e5e5e5"/>
      <path id="Caminho_57" data-name="Caminho 57" d="M412.554,452.765v6.483h-1.4v-.829a2.233,2.233,0,0,1-2.01,1,2.421,2.421,0,0,1-2.491-2.672v-3.981h1.4V456.6a1.352,1.352,0,0,0,1.453,1.5c.921,0,1.647-.544,1.647-1.867v-3.475Z" transform="translate(221.828 246.99)" fill="#e5e5e5"/>
      <path id="Caminho_58" data-name="Caminho 58" d="M416.4,457.479c0,1.3-1.127,2-2.528,2a2.706,2.706,0,0,1-2.645-1.517l1.206-.7a1.425,1.425,0,0,0,1.44.933c.623,0,1.1-.207,1.1-.726,0-1.154-3.488-.506-3.488-2.827a2.118,2.118,0,0,1,2.372-1.984,2.612,2.612,0,0,1,2.4,1.349l-1.181.659a1.262,1.262,0,0,0-1.219-.738c-.5,0-.947.22-.947.687C412.909,455.795,416.4,455.081,416.4,457.479Z" transform="translate(224.328 246.929)" fill="#e5e5e5"/>
      <path id="Caminho_59" data-name="Caminho 59" d="M417.418,454.754v3.112c0,.829.545.816,1.612.765v1.257c-2.152.26-3.008-.337-3.008-2.022v-3.112h-1.193v-1.349h1.193v-1.4l1.4-.415v1.815h1.612v1.349Z" transform="translate(226.295 246.349)" fill="#e5e5e5"/>
      <path id="Caminho_60" data-name="Caminho 60" d="M421.8,452.69v1.517a1.712,1.712,0,0,0-2,1.815v3.267h-1.4v-6.482h1.4V453.9A2.038,2.038,0,0,1,421.8,452.69Z" transform="translate(228.248 246.947)" fill="#e5e5e5"/>
      <path id="Caminho_61" data-name="Caminho 61" d="M427.751,452.826v6.483h-1.4v-.933a2.665,2.665,0,0,1-2.271,1.1,3.415,3.415,0,0,1,0-6.821,2.69,2.69,0,0,1,2.271,1.089v-.917Zm-1.4,3.242a2.051,2.051,0,1,0-2.051,2.075,2,2,0,0,0,2.051-2.075Z" transform="translate(229.577 246.929)" fill="#e5e5e5"/>
      <path id="Caminho_62" data-name="Caminho 62" d="M428.587,454.754v3.112c0,.829.545.816,1.608.765v1.257c-2.152.26-3-.337-3-2.022v-3.112H426v-1.349h1.193v-1.4l1.4-.415v1.815H430.2v1.349Z" transform="translate(232.388 246.349)" fill="#e5e5e5"/>
      <path id="Caminho_63" data-name="Caminho 63" d="M429.411,451.872a.894.894,0,1,1,.894.895.894.894,0,0,1-.894-.895Zm.194,1.867h1.4v6.483h-1.4Z" transform="translate(234.25 246.015)" fill="#e5e5e5"/>
      <path id="Caminho_64" data-name="Caminho 64" d="M431.258,456.075a3.423,3.423,0,1,1,3.424,3.41,3.385,3.385,0,0,1-3.424-3.41Zm5.447,0a2.023,2.023,0,1,0-2.023,2.051,1.991,1.991,0,0,0,2.023-2.051Z" transform="translate(235.258 246.921)" fill="#e5e5e5"/>
      <path id="Caminho_65" data-name="Caminho 65" d="M442.412,455.328v3.98h-1.4v-3.838a1.352,1.352,0,0,0-1.453-1.5c-.921,0-1.647.545-1.647,1.867v3.475h-1.4v-6.482h1.4v.83a2.232,2.232,0,0,1,2.01-1,2.417,2.417,0,0,1,2.49,2.671Z" transform="translate(238.123 246.929)" fill="#e5e5e5"/>
      <path id="Caminho_66" data-name="Caminho 66" d="M446.2,457.479c0,1.3-1.129,2-2.528,2a2.7,2.7,0,0,1-2.645-1.517l1.206-.7a1.423,1.423,0,0,0,1.44.933c.622,0,1.1-.207,1.1-.726,0-1.154-3.488-.506-3.488-2.827a2.118,2.118,0,0,1,2.373-1.984,2.61,2.61,0,0,1,2.4,1.349l-1.18.659a1.264,1.264,0,0,0-1.219-.738c-.505,0-.946.22-.946.687C442.713,455.795,446.2,455.081,446.2,457.479Z" transform="translate(240.587 246.929)" fill="#e5e5e5"/>
      <path id="Caminho_67" data-name="Caminho 67" d="M445.005,456.774a.973.973,0,1,1,.973.973.973.973,0,0,1-.973-.973Z" transform="translate(242.757 248.646)" fill="#e5e5e5"/>
      <path id="Caminho_68" data-name="Caminho 68" d="M446.659,456.066a3.346,3.346,0,0,1,3.423-3.411,3.2,3.2,0,0,1,2.892,1.673l-1.206.7a1.812,1.812,0,0,0-1.7-1,2.036,2.036,0,0,0,0,4.072,1.9,1.9,0,0,0,1.724-1l1.207.686a3.261,3.261,0,0,1-2.918,1.685,3.353,3.353,0,0,1-3.423-3.409Z" transform="translate(243.659 246.93)" fill="#e5e5e5"/>
      <path id="Caminho_69" data-name="Caminho 69" d="M451.116,456.075a3.423,3.423,0,1,1,3.423,3.41,3.384,3.384,0,0,1-3.423-3.41Zm5.446,0a2.023,2.023,0,1,0-2.023,2.051,1.991,1.991,0,0,0,2.023-2.051Z" transform="translate(246.091 246.921)" fill="#e5e5e5"/>
      <path id="Caminho_70" data-name="Caminho 70" d="M545.6,461.8H92.924l169.2-366.2H376.4Z" transform="translate(50.692 52.148)" opacity="0.43" fill="url(#linear-gradient)" style="mix-blend-mode: overlay;isolation: isolate"/>
      <path id="Caminho_71" data-name="Caminho 71" d="M352.715,258.994" transform="translate(192.411 141.285)" fill="none" stroke="#212728" stroke-linecap="round" stroke-linejoin="round" stroke-width="2.844"/>
      <path id="Caminho_72" data-name="Caminho 72" d="M359.453,243.374" transform="translate(196.087 132.764)" fill="none" stroke="#212728" stroke-linecap="round" stroke-linejoin="round" stroke-width="2.844"/>
      <path id="Caminho_73" data-name="Caminho 73" d="M86.534,278.346,92.272,251l30.159-6.837" transform="translate(47.206 133.195)" fill="none" stroke="#283035" stroke-linecap="round" stroke-linejoin="round" stroke-width="3.792"/>
      <path id="Caminho_74" data-name="Caminho 74" d="M151.7,206.594H399.143a12.537,12.537,0,0,1,12.537,12.536V382.412H139.162V219.13A12.536,12.536,0,0,1,151.7,206.594Z" transform="translate(75.915 112.7)" fill="#d2dce6"/>
      <path id="Caminho_75" data-name="Caminho 75" d="M151.7,206.594H399.143a12.537,12.537,0,0,1,12.537,12.536V382.412H139.162V219.13A12.536,12.536,0,0,1,151.7,206.594Z" transform="translate(75.915 112.7)" fill="none" stroke="#283035" stroke-linecap="round" stroke-linejoin="round" stroke-width="2.844"/>
      <rect id="Retângulo_4" data-name="Retângulo 4" width="134.794" height="231.493" transform="translate(467.083 340.014) rotate(90)" fill="#ff5c5c"/>
      <line id="Linha_2" data-name="Linha 2" x2="38.094" transform="translate(369.955 453.303)" opacity="0.3" stroke="#fff" stroke-linecap="round" stroke-linejoin="round" stroke-width="2.844" fill="#fff"/>
      <g id="Grupo_1" data-name="Grupo 1" transform="translate(460.062 404.953)" opacity="0.3">
        <path id="Caminho_76" data-name="Caminho 76" d="M300.439,268.468a3.27,3.27,0,0,1,3.331,2.3v-8.392a8.976,8.976,0,0,0-2.476-.36h-.855a2.443,2.443,0,0,0-2.764,2.764v.986C297.675,267.546,298.6,268.468,300.439,268.468Z" transform="translate(-297.675 -262.018)" fill="#fff"/>
        <path id="Caminho_77" data-name="Caminho 77" d="M303.77,292.218a3.276,3.276,0,0,1-3.331,2.286,2.442,2.442,0,0,0-2.764,2.763v.988a2.443,2.443,0,0,0,2.764,2.764h.855a8.973,8.973,0,0,0,2.476-.36Z" transform="translate(-297.675 -245.544)" fill="#fff"/>
      </g>
      <rect id="Retângulo_5" data-name="Retângulo 5" width="134.794" height="231.493" transform="translate(467.083 340.014) rotate(90)" stroke-width="2.844" stroke="#283035" stroke-linecap="round" stroke-linejoin="round" fill="none"/>
      <path id="Caminho_78" data-name="Caminho 78" d="M120.74,320.424H453.4a2.93,2.93,0,0,1,2.93,2.93v3.51a14.651,14.651,0,0,1-14.651,14.651H132.461a14.651,14.651,0,0,1-14.651-14.651v-3.51A2.93,2.93,0,0,1,120.74,320.424Z" transform="translate(64.267 174.796)" fill="#e5e5e5"/>
      <path id="Caminho_79" data-name="Caminho 79" d="M441.677,334.221H132.458A14.641,14.641,0,0,1,117.982,321.7a2.9,2.9,0,0,0-.172.952v3.51a14.651,14.651,0,0,0,14.651,14.652H441.68a14.651,14.651,0,0,0,14.651-14.652v-3.51a2.9,2.9,0,0,0-.172-.952,14.641,14.641,0,0,1-14.482,12.518Z" transform="translate(64.267 175.494)" fill="#cfd1d0"/>
      <path id="Caminho_80" data-name="Caminho 80" d="M120.74,320.424H453.4a2.93,2.93,0,0,1,2.93,2.93v3.51a14.651,14.651,0,0,1-14.651,14.651H132.461a14.651,14.651,0,0,1-14.651-14.651v-3.51A2.93,2.93,0,0,1,120.74,320.424Z" transform="translate(64.267 174.796)" fill="none" stroke="#283035" stroke-linecap="round" stroke-linejoin="round" stroke-width="2.844"/>
      <path id="Caminho_81" data-name="Caminho 81" d="M207.418,320.354h61.536a5.861,5.861,0,0,1-5.861,5.861H213.279a5.861,5.861,0,0,1-5.861-5.861Z" transform="translate(113.15 174.758)" fill="#686b6d"/>
      <path id="Caminho_82" data-name="Caminho 82" d="M207.418,320.354h61.536a5.861,5.861,0,0,1-5.861,5.861H213.279a5.861,5.861,0,0,1-5.861-5.861Z" transform="translate(113.15 174.758)" fill="none" stroke="#283035" stroke-linecap="round" stroke-linejoin="round" stroke-width="1.896"/>
      <circle id="Elipse_3" data-name="Elipse 3" cx="5.861" cy="5.861" r="5.861" transform="translate(344.899 323.519)" fill="#686b6d"/>
      <circle id="Elipse_4" data-name="Elipse 4" cx="5.861" cy="5.861" r="5.861" transform="translate(344.899 323.519)" stroke-width="1.896" stroke="#283035" stroke-linecap="round" stroke-linejoin="round" fill="none"/>
      <path id="Caminho_83" data-name="Caminho 83" d="M77.923,362.258h35.969a5.128,5.128,0,0,0,5.087-4.48l9.608-75.382H63.232l9.608,75.382a5.128,5.128,0,0,0,5.083,4.48Z" transform="translate(34.494 154.051)" fill="#ead57d"/>
      <path id="Caminho_84" data-name="Caminho 84" d="M73.23,282.4l7.623,69.62a5.848,5.848,0,0,0,5.813,5.211h32.388l-.07.549a5.128,5.128,0,0,1-5.087,4.48H77.928a5.128,5.128,0,0,1-5.086-4.479L63.232,282.4Z" transform="translate(34.494 154.052)" fill="#e5c66e"/>
      <path id="Caminho_85" data-name="Caminho 85" d="M77.923,362.258h35.969a5.128,5.128,0,0,0,5.087-4.48l9.608-75.382H63.232l9.608,75.382a5.128,5.128,0,0,0,5.083,4.48Z" transform="translate(34.494 154.051)" fill="none" stroke="#283035" stroke-linecap="round" stroke-linejoin="round" stroke-width="2.844"/>
      <path id="Caminho_86" data-name="Caminho 86" d="M126.894,332.9l4.647-36.458H61.819L66.466,332.9Z" transform="translate(33.723 161.712)" fill="#5cbf84"/>
      <path id="Caminho_87" data-name="Caminho 87" d="M126.894,332.9l4.647-36.458H61.819L66.466,332.9Z" transform="translate(33.723 161.712)" fill="#4fb277"/>
      <path id="Caminho_88" data-name="Caminho 88" d="M123,328.684l3.9-32.246H68.43l3.59,29.687a2.908,2.908,0,0,0,2.887,2.559Z" transform="translate(37.33 161.712)" fill="#5cbf84"/>
      <path id="Caminho_89" data-name="Caminho 89" d="M126.894,332.9l4.647-36.458H61.819L66.466,332.9Z" transform="translate(33.723 161.712)" fill="none" stroke="#283035" stroke-linecap="round" stroke-linejoin="round" stroke-width="2.844"/>
      <rect id="Retângulo_6" data-name="Retângulo 6" width="89.871" height="16.117" rx="5.214" transform="translate(175.339 436.448) rotate(180)" fill="#5cbf84"/>
      <rect id="Retângulo_7" data-name="Retângulo 7" width="89.871" height="16.117" rx="5.214" transform="translate(175.339 436.448) rotate(180)" fill="#4fb277"/>
      <rect id="Retângulo_8" data-name="Retângulo 8" width="79.796" height="12.637" rx="4.088" transform="translate(175.338 432.968) rotate(180)" fill="#5cbf84"/>
      <rect id="Retângulo_9" data-name="Retângulo 9" width="89.871" height="16.117" rx="5.214" transform="translate(175.339 436.448) rotate(180)" stroke-width="2.844" stroke="#283035" stroke-linecap="round" stroke-linejoin="round" fill="none"/>
      <path id="Caminho_90" data-name="Caminho 90" d="M65.415,275.072h58.606l-1.16-8.791H66.575Z" transform="translate(35.685 145.26)" fill="#5cbf84"/>
      <path id="Caminho_91" data-name="Caminho 91" d="M66.575,266.281H83.77l-4.07,8.791H65.415Z" transform="translate(35.685 145.26)" fill="#54af79"/>
      <path id="Caminho_92" data-name="Caminho 92" d="M65.415,275.072h58.606l-1.16-8.791H66.575Z" transform="translate(35.685 145.26)" fill="none" stroke="#283035" stroke-linecap="round" stroke-linejoin="round" stroke-width="2.844"/>
      <path id="Caminho_93" data-name="Caminho 93" d="M119.887,332.256" transform="translate(65.4 181.251)" fill="none" stroke="#212728" stroke-linecap="round" stroke-linejoin="round" stroke-width="2.844"/>
      <path id="Caminho_94" data-name="Caminho 94" d="M341.818,341.612a21.237,21.237,0,1,1,42.474,0Z" transform="translate(186.467 174.769)" fill="#e5e5e5"/>
      <path id="Caminho_95" data-name="Caminho 95" d="M361.241,334.9a21.279,21.279,0,0,0,16.1-7.132,21.22,21.22,0,0,0-32.2,0A21.279,21.279,0,0,0,361.241,334.9Z" transform="translate(188.28 174.77)" fill="#cfd1d0"/>
      <path id="Caminho_96" data-name="Caminho 96" d="M341.818,341.612a21.237,21.237,0,1,1,42.474,0Z" transform="translate(186.467 174.769)" fill="none" stroke="#283035" stroke-linecap="round" stroke-linejoin="round" stroke-width="2.844"/>
      <rect id="Retângulo_10" data-name="Retângulo 10" width="123.072" height="98.165" rx="3.796" transform="translate(268.86 366.127)" opacity="0.14" style="mix-blend-mode: multiply;isolation: isolate"/>
      <rect id="Retângulo_11" data-name="Retângulo 11" width="123.072" height="98.165" rx="3.796" transform="translate(263.122 360.999)" fill="#353f49"/>
      <rect id="Retângulo_12" data-name="Retângulo 12" width="123.072" height="98.165" rx="3.796" transform="translate(263.122 360.999)" stroke-width="1.896" stroke="#283035" stroke-linecap="round" stroke-linejoin="round" fill="none"/>
      <path id="Caminho_97" data-name="Caminho 97" d="M176.114,233.578h111.34a5.866,5.866,0,0,1,5.866,5.866v8.785H170.248v-8.785A5.866,5.866,0,0,1,176.114,233.578Z" transform="translate(92.873 127.42)" fill="#eaeeef"/>
      <path id="Caminho_98" data-name="Caminho 98" d="M176.114,233.578h111.34a5.866,5.866,0,0,1,5.866,5.866v8.785H170.248v-8.785A5.866,5.866,0,0,1,176.114,233.578Z" transform="translate(92.873 127.42)" fill="none" stroke="#283035" stroke-linecap="round" stroke-linejoin="round" stroke-width="1.896"/>
      <circle id="Elipse_5" data-name="Elipse 5" cx="2.289" cy="2.289" r="2.289" transform="translate(271.332 366.035)" fill="#283035" opacity="0.35"/>
      <circle id="Elipse_6" data-name="Elipse 6" cx="2.289" cy="2.289" r="2.289" transform="translate(278.536 366.035)" fill="#283035" opacity="0.35"/>
      <circle id="Elipse_7" data-name="Elipse 7" cx="2.289" cy="2.289" r="2.289" transform="translate(285.374 366.035)" fill="#283035" opacity="0.35"/>
      <line id="Linha_3" data-name="Linha 3" x2="8.058" transform="translate(268.86 380.778)" fill="none" stroke="#46bb86" stroke-miterlimit="10" stroke-width="1.422"/>
      <line id="Linha_4" data-name="Linha 4" x2="21.977" transform="translate(279.848 380.778)" fill="none" stroke="#46bb86" stroke-miterlimit="10" stroke-width="1.422"/>
      <line id="Linha_5" data-name="Linha 5" x2="32.966" transform="translate(268.86 386.639)" fill="none" stroke="#389abe" stroke-miterlimit="10" stroke-width="1.422"/>
      <line id="Linha_6" data-name="Linha 6" x2="16.117" transform="translate(275.453 392.499)" fill="none" stroke="#e5c689" stroke-miterlimit="10" stroke-width="1.422"/>
      <line id="Linha_7" data-name="Linha 7" x2="17.582" transform="translate(294.5 392.499)" fill="none" stroke="#f2f3f4" stroke-miterlimit="10" stroke-width="1.422"/>
      <line id="Linha_8" data-name="Linha 8" x2="33.698" transform="translate(284.244 398.36)" fill="none" stroke="#f2f3f4" stroke-miterlimit="10" stroke-width="1.422"/>
      <line id="Linha_9" data-name="Linha 9" x2="24.908" transform="translate(284.244 404.221)" fill="none" stroke="#ffa49f" stroke-miterlimit="10" stroke-width="1.422"/>
      <line id="Linha_10" data-name="Linha 10" x2="36.629" transform="translate(275.453 410.081)" fill="none" stroke="#f2f3f4" stroke-miterlimit="10" stroke-width="1.422"/>
      <line id="Linha_11" data-name="Linha 11" x2="19.78" transform="translate(268.86 415.209)" fill="none" stroke="#389abe" stroke-miterlimit="10" stroke-width="1.422"/>
      <g id="Grupo_2" data-name="Grupo 2" transform="translate(433.689 405.689)" opacity="0.3">
        <path id="Caminho_99" data-name="Caminho 99" d="M286.205,300.4a6.509,6.509,0,0,0-3.357-6.185c-1.579-.856-2.237-1.514-2.237-3.027v-2.564c0-1.776.79-2.171,2.171-3.093,2.3-.987,3.423-3.092,3.423-6.251v-5.594c0-4.475,1.645-7.765,4.014-9.147a11,11,0,0,1,6.054-2.04h.856a2.443,2.443,0,0,1,2.764,2.764v.983c0,1.776-.922,2.7-2.764,2.7-2.564,0-3.817,1.842-3.817,5.593v6.91a8.761,8.761,0,0,1-4.8,8.16l-.593.2v.132a5.14,5.14,0,0,1,1.842.988c1.645.986,3.554,3.29,3.554,7.3v7.7c0,3.685,1.25,5.528,3.817,5.528a2.443,2.443,0,0,1,2.764,2.763v.988a2.443,2.443,0,0,1-2.764,2.764h-.856a11,11,0,0,1-6.054-2.04c-2.369-1.382-4.014-4.738-4.014-9.147Z" transform="translate(-280.611 -262.494)" fill="#fff"/>
      </g>
      <path id="Caminho_100" data-name="Caminho 100" d="M76.629,308.136" transform="translate(41.802 168.093)" fill="none" stroke="#212728" stroke-linecap="round" stroke-miterlimit="10" stroke-width="0.474"/>
      <path id="Caminho_101" data-name="Caminho 101" d="M70.59,310.349l1.465-1.426a31.216,31.216,0,0,0,39.313,0l1.831,1.79" transform="translate(38.508 168.522)" fill="none" stroke="#283035" stroke-linecap="round" stroke-linejoin="round" stroke-width="1.422"/>
      <path id="Caminho_102" data-name="Caminho 102" d="M83.564,306.173a3.136,3.136,0,0,0-3.136-3.136h0a3.136,3.136,0,0,0-3.136,3.136v2.872" transform="translate(42.164 165.311)" fill="none" stroke="#283035" stroke-linecap="round" stroke-linejoin="round" stroke-width="1.422"/>
      <path id="Caminho_103" data-name="Caminho 103" d="M87.4,306.173a3.136,3.136,0,0,1,3.136-3.136h0a3.136,3.136,0,0,1,3.136,3.136v2.872" transform="translate(47.678 165.311)" fill="none" stroke="#283035" stroke-linecap="round" stroke-linejoin="round" stroke-width="1.422"/>
      <rect id="Retângulo_13" data-name="Retângulo 13" width="70.327" height="95.235" rx="4.313" transform="translate(581.474 421.147)" fill="#e5e5e5"/>
      <path id="Caminho_104" data-name="Caminho 104" d="M439.827,272.5h-.845a6.661,6.661,0,0,1,.185,1.538v81.9A6.666,6.666,0,0,1,432.5,362.6H376.356a6.666,6.666,0,0,0,6.481,5.128h56.994a6.666,6.666,0,0,0,6.666-6.666v-81.9A6.666,6.666,0,0,0,439.827,272.5Z" transform="translate(205.308 148.651)" fill="#cfd1d0"/>
      <rect id="Retângulo_14" data-name="Retângulo 14" width="70.327" height="95.235" rx="4.313" transform="translate(581.474 421.147)" stroke-width="2.844" stroke="#283035" stroke-linecap="round" stroke-linejoin="round" fill="none"/>
      <path id="Caminho_105" data-name="Caminho 105" d="M416.912,271.764h-5.861v-2.2a5.861,5.861,0,1,0-11.721,0v2.2H393.47a5.861,5.861,0,1,0,0,11.721h23.442a5.861,5.861,0,1,0,0-11.721Z" transform="translate(211.447 143.856)" fill="#f7b66f"/>
      <path id="Caminho_106" data-name="Caminho 106" d="M419.562,269.356a5.842,5.842,0,0,1-5.653,7.384H390.466a5.83,5.83,0,0,1-2.723-.673A5.861,5.861,0,0,0,393.4,280.4h23.442a5.861,5.861,0,0,0,2.723-11.047Z" transform="translate(211.52 146.938)" fill="#eda762"/>
      <path id="Caminho_107" data-name="Caminho 107" d="M400.954,265.666v2.2h2.738a5.86,5.86,0,0,0-2.946-3.721,5.84,5.84,0,0,1,.207,1.524Z" transform="translate(218.614 144.094)" fill="#eda762"/>
      <path id="Caminho_108" data-name="Caminho 108" d="M416.912,271.764h-5.861v-2.2a5.861,5.861,0,1,0-11.721,0v2.2H393.47a5.861,5.861,0,1,0,0,11.721h23.442a5.861,5.861,0,1,0,0-11.721Z" transform="translate(211.447 143.856)" fill="none" stroke="#283035" stroke-linecap="round" stroke-linejoin="round" stroke-width="2.844"/>
      <circle id="Elipse_8" data-name="Elipse 8" cx="6.105" cy="6.105" r="6.105" transform="translate(610.533 436.377)" fill="#8eafbf"/>
      <circle id="Elipse_9" data-name="Elipse 9" cx="6.105" cy="6.105" r="6.105" transform="translate(610.533 436.377)" stroke-width="2.844" stroke="#283035" stroke-linecap="round" stroke-linejoin="round" fill="none"/>
      <line id="Linha_12" data-name="Linha 12" x2="14.651" transform="translate(593.359 461.284)" fill="none" stroke="#283035" stroke-linecap="round" stroke-linejoin="round" stroke-width="2.844"/>
      <line id="Linha_13" data-name="Linha 13" x2="14.651" transform="translate(593.359 481.185)" fill="none" stroke="#283035" stroke-linecap="round" stroke-linejoin="round" stroke-width="2.844"/>
      <line id="Linha_14" data-name="Linha 14" x2="14.651" transform="translate(593.359 501.087)" fill="none" stroke="#283035" stroke-linecap="round" stroke-linejoin="round" stroke-width="2.844"/>
      <path id="Caminho_109" data-name="Caminho 109" d="M399.666,299.2l3.82,5.08,11.431-8.593" transform="translate(218.024 161.301)" fill="none" stroke="#8bafc1" stroke-linecap="round" stroke-linejoin="round" stroke-width="1.896"/>
      <path id="Caminho_110" data-name="Caminho 110" d="M399.666,312.076l3.82,5.081,11.431-8.594" transform="translate(218.024 168.326)" fill="none" stroke="#8bafc1" stroke-linecap="round" stroke-linejoin="round" stroke-width="1.896"/>
      <rect id="Retângulo_15" data-name="Retângulo 15" width="7.326" height="46.885" transform="translate(651.8 462.926) rotate(-7.922)" fill="#3bbc88"/>
      <rect id="Retângulo_16" data-name="Retângulo 16" width="7.326" height="46.885" transform="translate(651.8 462.926) rotate(-7.922)" stroke-width="1.896" stroke="#283035" stroke-linecap="round" stroke-linejoin="round" fill="none"/>
      <path id="Caminho_111" data-name="Caminho 111" d="M433.174,328.918l-7.256,1.009,4.638,6.751Z" transform="translate(232.345 179.43)" fill="#e5e5e5"/>
      <path id="Caminho_112" data-name="Caminho 112" d="M433.174,328.918l-7.256,1.009,4.638,6.751Z" transform="translate(232.345 179.43)" fill="none" stroke="#283035" stroke-linecap="round" stroke-linejoin="round" stroke-width="1.896"/>
      <rect id="Retângulo_17" data-name="Retângulo 17" width="4.394" height="7.323" transform="translate(652.025 455.141) rotate(-7.936)" fill="#e5e5e5"/>
      <rect id="Retângulo_18" data-name="Retângulo 18" width="4.394" height="7.323" transform="translate(652.025 455.141) rotate(-7.936)" stroke-width="1.895" stroke="#283035" stroke-linecap="round" stroke-linejoin="round" fill="none"/>
      <path id="Caminho_113" data-name="Caminho 113" d="M432.613,316.2a13.762,13.762,0,0,1-1.719-4.384c-.81-3.98,1.189-6.255.108-8.521-.431-.9-.64-2.137-3.875-2.6" transform="translate(233.004 164.033)" fill="none" stroke="#283035" stroke-linecap="round" stroke-linejoin="round" stroke-width="1.896"/>
      <line id="Linha_15" data-name="Linha 15" x2="18.864" transform="translate(674.518 516.381)" fill="none" stroke="#283035" stroke-linecap="round" stroke-linejoin="round" stroke-width="2.844"/>
      <line id="Linha_16" data-name="Linha 16" x2="494.61" transform="translate(171.666 516.381)" fill="none" stroke="#283035" stroke-linecap="round" stroke-linejoin="round" stroke-width="2.844"/>
      <line id="Linha_17" data-name="Linha 17" x2="79.02" transform="translate(84.063 516.381)" fill="none" stroke="#283035" stroke-linecap="round" stroke-linejoin="round" stroke-width="2.844"/>
      <line id="Linha_18" data-name="Linha 18" x2="16.972" transform="translate(58.85 516.381)" fill="none" stroke="#283035" stroke-linecap="round" stroke-linejoin="round" stroke-width="2.844"/>
      <circle id="Elipse_10" data-name="Elipse 10" cx="17.582" cy="17.582" r="17.582" transform="translate(352.373 131.557)" fill="#fff"/>
      <path id="Caminho_114" data-name="Caminho 114" d="M208.941,119.752a6.324,6.324,0,0,1-6.255-7.1C206.1,83.636,230.2,61.146,259.413,61.146s53.309,22.49,56.725,51.506a6.323,6.323,0,0,1-6.256,7.1Z" transform="translate(110.542 33.356)" fill="#f7b66f"/>
      <path id="Caminho_115" data-name="Caminho 115" d="M268.261,61.838h0c-.189-.03-.38-.051-.57-.079-.666-.1-1.335-.187-2.009-.262-.306-.034-.613-.062-.921-.092-.558-.053-1.117-.1-1.677-.133-.325-.019-.648-.043-.974-.059-.875-.041-1.758-.068-2.637-.068s-1.758.026-2.628.068c-.4.019-.8.051-1.2.078-.432.03-.864.061-1.294.1-.527.048-1.052.1-1.575.168-.256.031-.513.065-.765.1-26.39,3.533-47.124,25.52-49.458,52.928a4.746,4.746,0,0,0,4.718,5.164H311.674a4.724,4.724,0,0,0,4.724-5.087C314.136,87.68,294.043,65.921,268.261,61.838Zm-46.135,41.746a58.093,58.093,0,0,1,36.8-39.413,58.082,58.082,0,0,1,36.844,39.413,7.884,7.884,0,0,1-7.636,9.942H229.764a7.883,7.883,0,0,1-7.637-9.942Z" transform="translate(110.485 33.356)" fill="#efaa65"/>
      <path id="Caminho_116" data-name="Caminho 116" d="M208.989,119.752a6.366,6.366,0,0,1-6.3-7.149c3.441-29,27.524-51.457,56.722-51.457s53.282,22.461,56.72,51.457a6.365,6.365,0,0,1-6.3,7.149Z" transform="translate(110.544 33.356)" fill="none" stroke="#283035" stroke-linecap="round" stroke-linejoin="round" stroke-width="2.844"/>
      <line id="Linha_19" data-name="Linha 19" y2="94.502" transform="translate(369.955)" fill="none" stroke="#283035" stroke-linejoin="round" stroke-width="2.844"/>
    </g>
  </g>
</svg>
