<svg xmlns="http://www.w3.org/2000/svg" xmlns:xlink="http://www.w3.org/1999/xlink" width="23" height="23" viewBox="0 0 23 23">
  <defs>
    <clipPath id="clip-path">
      <circle id="Elipse_2" data-name="Elipse 2" cx="11.5" cy="11.5" r="11.5" transform="translate(144 274)" fill="#fff"/>
    </clipPath>
  </defs>
  <g id="Grupo_de_máscara_1" data-name="Grupo de máscara 1" transform="translate(-144 -274)" clip-path="url(#clip-path)">
    <g id="whatsapp" transform="translate(144 274)">
      <path id="Caminho_2" data-name="Caminho 2" d="M11.5,0H11.5A11.493,11.493,0,0,0,2.189,18.24L.756,22.513,5.176,21.1A11.5,11.5,0,1,0,11.5,0Z" fill="#4caf50"/>
      <path id="Caminho_3" data-name="Caminho 3" d="M18.194,16.239a3.245,3.245,0,0,1-2.257,1.623c-.6.128-1.386.23-4.028-.865A14.406,14.406,0,0,1,6.184,11.94,6.568,6.568,0,0,1,4.819,8.471a3.671,3.671,0,0,1,1.176-2.8A1.671,1.671,0,0,1,7.17,5.26c.142,0,.27.007.385.013.338.014.507.035.73.568.277.668.953,2.319,1.034,2.488a.685.685,0,0,1,.049.622A1.987,1.987,0,0,1,9,9.479c-.17.2-.331.345-.5.555-.155.183-.331.378-.135.716a10.207,10.207,0,0,0,1.866,2.319,8.455,8.455,0,0,0,2.7,1.663.727.727,0,0,0,.811-.128,13.914,13.914,0,0,0,.9-1.19.642.642,0,0,1,.825-.25c.311.108,1.954.92,2.291,1.088s.561.25.643.392A2.864,2.864,0,0,1,18.194,16.239Z" fill="#fafafa"/>
    </g>
  </g>
</svg>
